<?xml version="1.0" encoding="UTF-8"?>
<!DOCTYPE svg PUBLIC "-//W3C//DTD SVG 1.1//EN" "http://www.w3.org/Graphics/SVG/1.1/DTD/svg11.dtd">
<svg xmlns="http://www.w3.org/2000/svg" version="1.1" width="600px" height="600px" style="shape-rendering:geometricPrecision; text-rendering:geometricPrecision; image-rendering:optimizeQuality; fill-rule:evenodd; clip-rule:evenodd" xmlns:xlink="http://www.w3.org/1999/xlink">
<g><path style="opacity:0.977" fill="#e8e8e8" d="M 366.5,71.5 C 325.5,71.5 284.5,71.5 243.5,71.5C 263.838,55.1724 284.505,39.1724 305.5,23.5C 326.447,38.7963 346.781,54.7963 366.5,71.5 Z"/></g>
<g><path style="opacity:1" fill="#fefefe" d="M 78.5,71.5 C 133.5,71.5 188.5,71.5 243.5,71.5C 284.5,71.5 325.5,71.5 366.5,71.5C 420.5,71.5 474.5,71.5 528.5,71.5C 528.5,103.167 528.5,134.833 528.5,166.5C 526.833,166.5 525.167,166.5 523.5,166.5C 523.831,136.662 523.498,106.995 522.5,77.5C 376.5,77.5 230.5,77.5 84.5,77.5C 83.5019,106.995 83.1686,136.662 83.5,166.5C 81.8333,166.5 80.1667,166.5 78.5,166.5C 78.5,134.833 78.5,103.167 78.5,71.5 Z"/></g>
<g><path style="opacity:1" fill="#fdd209" d="M 84.5,77.5 C 230.5,77.5 376.5,77.5 522.5,77.5C 522.5,93.8333 522.5,110.167 522.5,126.5C 470.167,126.5 417.833,126.5 365.5,126.5C 339.799,111.958 312.466,108.125 283.5,115C 273.384,117.76 263.717,121.593 254.5,126.5C 197.833,126.5 141.167,126.5 84.5,126.5C 84.5,110.167 84.5,93.8333 84.5,77.5 Z"/></g>
<g><path style="opacity:1" fill="#f9f8f6" d="M 365.5,126.5 C 379.051,135.926 389.051,148.26 395.5,163.5C 398.514,170.544 400.514,177.877 401.5,185.5C 402.427,195.794 402.76,206.128 402.5,216.5C 402.167,216.5 401.833,216.5 401.5,216.5C 395.833,216.5 390.167,216.5 384.5,216.5C 385.812,208.735 385.812,201.068 384.5,193.5C 384.702,191.05 384.369,188.717 383.5,186.5C 374.832,146.308 349.832,126.308 308.5,126.5C 273.753,127.952 247.587,143.619 230,173.5C 227.603,177.624 225.769,181.957 224.5,186.5C 224.167,186.5 223.833,186.5 223.5,186.5C 217.833,186.5 212.167,186.5 206.5,186.5C 209.367,178.433 213.034,170.767 217.5,163.5C 226.861,148.139 239.194,135.806 254.5,126.5C 263.717,121.593 273.384,117.76 283.5,115C 312.466,108.125 339.799,111.958 365.5,126.5 Z"/></g>
<g><path style="opacity:1" fill="#fad00e" d="M 84.5,126.5 C 141.167,126.5 197.833,126.5 254.5,126.5C 239.194,135.806 226.861,148.139 217.5,163.5C 173.167,163.5 128.833,163.5 84.5,163.5C 84.5,151.167 84.5,138.833 84.5,126.5 Z"/></g>
<g><path style="opacity:1" fill="#fad00e" d="M 365.5,126.5 C 417.833,126.5 470.167,126.5 522.5,126.5C 522.5,138.833 522.5,151.167 522.5,163.5C 480.167,163.5 437.833,163.5 395.5,163.5C 389.051,148.26 379.051,135.926 365.5,126.5 Z"/></g>
<g><path style="opacity:1" fill="#f8cf12" d="M 383.5,186.5 C 372.321,186.828 361.321,186.495 350.5,185.5C 350.683,181.1 351.349,176.766 352.5,172.5C 352.43,171.228 352.097,170.062 351.5,169C 318.761,157.114 289.761,162.948 264.5,186.5C 251.167,186.5 237.833,186.5 224.5,186.5C 225.769,181.957 227.603,177.624 230,173.5C 247.587,143.619 273.753,127.952 308.5,126.5C 349.832,126.308 374.832,146.308 383.5,186.5 Z"/></g>
<g><path style="opacity:1" fill="#f5cd10" d="M 84.5,163.5 C 128.833,163.5 173.167,163.5 217.5,163.5C 213.034,170.767 209.367,178.433 206.5,186.5C 165.833,186.5 125.167,186.5 84.5,186.5C 84.5,178.833 84.5,171.167 84.5,163.5 Z"/></g>
<g><path style="opacity:1" fill="#f2f2f0" d="M 350.5,185.5 C 348.288,193.942 346.622,202.609 345.5,211.5C 344.549,212.919 344.216,214.585 344.5,216.5C 337.978,216.823 331.645,216.49 325.5,215.5C 326.803,204.88 328.803,194.38 331.5,184C 331.355,183.228 331.022,182.561 330.5,182C 301.497,176.333 281.497,187.167 270.5,214.5C 268.665,217.842 267.498,221.509 267,225.5C 266.501,231.491 266.334,237.491 266.5,243.5C 259.219,244.071 252.219,243.405 245.5,241.5C 245.5,240.833 245.5,240.167 245.5,239.5C 245.25,225.665 248.417,212.665 255,200.5C 258.414,195.934 261.58,191.268 264.5,186.5C 289.761,162.948 318.761,157.114 351.5,169C 352.097,170.062 352.43,171.228 352.5,172.5C 351.349,176.766 350.683,181.1 350.5,185.5 Z"/></g>
<g><path style="opacity:1" fill="#f5cd10" d="M 395.5,163.5 C 437.833,163.5 480.167,163.5 522.5,163.5C 522.5,171.167 522.5,178.833 522.5,186.5C 482.094,186.827 441.761,186.494 401.5,185.5C 400.514,177.877 398.514,170.544 395.5,163.5 Z"/></g>
<g><path style="opacity:1" fill="#f4f2e9" d="M 78.5,71.5 C 78.5,103.167 78.5,134.833 78.5,166.5C 80.1667,166.5 81.8333,166.5 83.5,166.5C 83.1686,136.662 83.5019,106.995 84.5,77.5C 84.5,93.8333 84.5,110.167 84.5,126.5C 84.5,138.833 84.5,151.167 84.5,163.5C 84.5,171.167 84.5,178.833 84.5,186.5C 84.5,196.5 84.5,206.5 84.5,216.5C 84.5,225.5 84.5,234.5 84.5,243.5C 84.5,249.167 84.5,254.833 84.5,260.5C 82.1667,259.167 79.8333,257.833 77.5,256.5C 77.5,237.167 77.5,217.833 77.5,198.5C 77.168,155.997 77.5013,113.663 78.5,71.5 Z"/></g>
<g><path style="opacity:1" fill="#f4f2e9" d="M 528.5,71.5 C 529.499,113.997 529.832,156.663 529.5,199.5C 529.5,218.833 529.5,238.167 529.5,257.5C 527.33,259.086 524.996,260.42 522.5,261.5C 522.5,255.5 522.5,249.5 522.5,243.5C 522.5,234.5 522.5,225.5 522.5,216.5C 522.5,206.5 522.5,196.5 522.5,186.5C 522.5,178.833 522.5,171.167 522.5,163.5C 522.5,151.167 522.5,138.833 522.5,126.5C 522.5,110.167 522.5,93.8333 522.5,77.5C 523.498,106.995 523.831,136.662 523.5,166.5C 525.167,166.5 526.833,166.5 528.5,166.5C 528.5,134.833 528.5,103.167 528.5,71.5 Z"/></g>
<g><path style="opacity:1" fill="#f0c910" d="M 84.5,186.5 C 125.167,186.5 165.833,186.5 206.5,186.5C 202.672,196.128 200.338,206.128 199.5,216.5C 161.167,216.5 122.833,216.5 84.5,216.5C 84.5,206.5 84.5,196.5 84.5,186.5 Z"/></g>
<g><path style="opacity:1" fill="#f0c916" d="M 325.5,215.5 C 324.833,215.5 324.5,215.833 324.5,216.5C 306.136,217.153 288.136,216.487 270.5,214.5C 281.497,187.167 301.497,176.333 330.5,182C 331.022,182.561 331.355,183.228 331.5,184C 328.803,194.38 326.803,204.88 325.5,215.5 Z"/></g>
<g><path style="opacity:1" fill="#f0c914" d="M 350.5,185.5 C 361.321,186.495 372.321,186.828 383.5,186.5C 384.369,188.717 384.702,191.05 384.5,193.5C 384.5,199.833 384.5,206.167 384.5,212.5C 371.323,212.829 358.323,212.495 345.5,211.5C 346.622,202.609 348.288,193.942 350.5,185.5 Z"/></g>
<g><path style="opacity:1" fill="#f0c911" d="M 401.5,185.5 C 441.761,186.494 482.094,186.827 522.5,186.5C 522.5,196.5 522.5,206.5 522.5,216.5C 482.5,216.5 442.5,216.5 402.5,216.5C 402.76,206.128 402.427,195.794 401.5,185.5 Z"/></g>
<g><path style="opacity:0.999" fill="#d0d0d0" d="M 77.5,198.5 C 77.5,217.833 77.5,237.167 77.5,256.5C 63.1264,247.98 48.4597,239.98 33.5,232.5C 47.857,220.815 62.5237,209.482 77.5,198.5 Z"/></g>
<g><path style="opacity:0.999" fill="#d0d0d0" d="M 529.5,199.5 C 544.458,210.458 559.124,221.791 573.5,233.5C 558.54,240.98 543.874,248.98 529.5,257.5C 529.5,238.167 529.5,218.833 529.5,199.5 Z"/></g>
<g><path style="opacity:1" fill="#eac310" d="M 84.5,216.5 C 122.833,216.5 161.167,216.5 199.5,216.5C 198.57,223.777 198.236,231.11 198.5,238.5C 198.5,240.167 198.5,241.833 198.5,243.5C 160.5,243.5 122.5,243.5 84.5,243.5C 84.5,234.5 84.5,225.5 84.5,216.5 Z"/></g>
<g><path style="opacity:1" fill="#ececea" d="M 206.5,186.5 C 212.167,186.5 217.833,186.5 223.5,186.5C 218.187,202.692 215.854,219.359 216.5,236.5C 216.5,238.5 216.5,240.5 216.5,242.5C 211.025,243.489 205.358,243.822 199.5,243.5C 199.784,241.585 199.451,239.919 198.5,238.5C 198.236,231.11 198.57,223.777 199.5,216.5C 200.338,206.128 202.672,196.128 206.5,186.5 Z"/></g>
<g><path style="opacity:1" fill="#edc614" d="M 223.5,186.5 C 223.833,186.5 224.167,186.5 224.5,186.5C 237.833,186.5 251.167,186.5 264.5,186.5C 261.58,191.268 258.414,195.934 255,200.5C 248.417,212.665 245.25,225.665 245.5,239.5C 236.167,239.5 226.833,239.5 217.5,239.5C 217.737,238.209 217.404,237.209 216.5,236.5C 215.854,219.359 218.187,202.692 223.5,186.5 Z"/></g>
<g><path style="opacity:1" fill="#e9c317" d="M 384.5,193.5 C 385.812,201.068 385.812,208.735 384.5,216.5C 383.276,233.388 376.276,247.221 363.5,258C 351.296,265.244 343.796,262.077 341,248.5C 340.359,237.629 341.526,226.962 344.5,216.5C 344.216,214.585 344.549,212.919 345.5,211.5C 358.323,212.495 371.323,212.829 384.5,212.5C 384.5,206.167 384.5,199.833 384.5,193.5 Z"/></g>
<g><path style="opacity:1" fill="#eac310" d="M 401.5,216.5 C 401.833,216.5 402.167,216.5 402.5,216.5C 442.5,216.5 482.5,216.5 522.5,216.5C 522.5,225.5 522.5,234.5 522.5,243.5C 479.997,243.832 437.663,243.499 395.5,242.5C 396.889,237.832 398.389,233.165 400,228.5C 401.015,224.56 401.515,220.56 401.5,216.5 Z"/></g>
<g><path style="opacity:1" fill="#f9f8f7" d="M 33.5,235.5 C 50.6333,244.567 67.6333,253.9 84.5,263.5C 146.465,298.151 208.465,332.818 270.5,367.5C 270.34,369.153 269.674,370.486 268.5,371.5C 267.833,371.5 267.167,371.5 266.5,371.5C 189.489,329.332 112.823,286.499 36.5,243C 35.2921,240.75 33.9587,238.583 32.5,236.5C 32.6236,235.893 32.9569,235.56 33.5,235.5 Z"/></g>
<g><path style="opacity:1" fill="#f9f8f7" d="M 574.5,235.5 C 574.5,236.167 574.5,236.833 574.5,237.5C 572.639,240.022 570.639,242.522 568.5,245C 530.48,265.337 493.147,286.67 456.5,309C 419.677,329.15 382.843,349.317 346,369.5C 344.636,368.629 343.47,367.629 342.5,366.5C 402.5,332.5 462.5,298.5 522.5,264.5C 539.833,254.833 557.167,245.167 574.5,235.5 Z"/></g>
<g><path style="opacity:1" fill="#bababa" d="M 33.5,232.5 C 48.4597,239.98 63.1264,247.98 77.5,256.5C 79.8333,257.833 82.1667,259.167 84.5,260.5C 84.5,261.5 84.5,262.5 84.5,263.5C 67.6333,253.9 50.6333,244.567 33.5,235.5C 33.1583,234.662 32.4916,234.328 31.5,234.5C 31.3333,161.833 31.5,89.1659 32,16.5C 32.1671,88.6678 32.6671,160.668 33.5,232.5 Z"/></g>
<g><path style="opacity:1" fill="#e3be0f" d="M 84.5,243.5 C 122.5,243.5 160.5,243.5 198.5,243.5C 200.289,251.11 201.956,258.777 203.5,266.5C 186.68,267.833 169.513,268.5 152,268.5C 134.124,268.487 116.291,268.154 98.5,267.5C 93.5499,265.692 88.8832,263.358 84.5,260.5C 84.5,254.833 84.5,249.167 84.5,243.5 Z"/></g>
<g><path style="opacity:1" fill="#e4be13" d="M 216.5,236.5 C 217.404,237.209 217.737,238.209 217.5,239.5C 226.833,239.5 236.167,239.5 245.5,239.5C 245.5,240.167 245.5,240.833 245.5,241.5C 246.459,251.394 250.125,260.06 256.5,267.5C 245.679,268.495 234.679,268.828 223.5,268.5C 220.206,259.981 217.872,251.315 216.5,242.5C 216.5,240.5 216.5,238.5 216.5,236.5 Z"/></g>
<g><path style="opacity:1" fill="#e4e4e2" d="M 325.5,215.5 C 331.645,216.49 337.978,216.823 344.5,216.5C 341.526,226.962 340.359,237.629 341,248.5C 343.796,262.077 351.296,265.244 363.5,258C 376.276,247.221 383.276,233.388 384.5,216.5C 390.167,216.5 395.833,216.5 401.5,216.5C 401.515,220.56 401.015,224.56 400,228.5C 398.389,233.165 396.889,237.832 395.5,242.5C 390.997,252.475 384.33,260.809 375.5,267.5C 364.328,275.724 351.995,278.224 338.5,275C 334.096,273.223 330.596,270.39 328,266.5C 325.456,261.114 323.956,255.447 323.5,249.5C 308.518,274.549 287.518,281.716 260.5,271C 259.295,269.624 257.962,268.458 256.5,267.5C 250.125,260.06 246.459,251.394 245.5,241.5C 252.219,243.405 259.219,244.071 266.5,243.5C 271.247,257.873 280.913,262.707 295.5,258C 306.724,252.443 314.89,243.943 320,232.5C 322.418,227.414 323.918,222.081 324.5,216.5C 324.5,215.833 324.833,215.5 325.5,215.5 Z"/></g>
<g><path style="opacity:1" fill="#e7c114" d="M 270.5,214.5 C 288.136,216.487 306.136,217.153 324.5,216.5C 323.918,222.081 322.418,227.414 320,232.5C 314.89,243.943 306.724,252.443 295.5,258C 280.913,262.707 271.247,257.873 266.5,243.5C 266.334,237.491 266.501,231.491 267,225.5C 267.498,221.509 268.665,217.842 270.5,214.5 Z"/></g>
<g><path style="opacity:1" fill="#e3be0f" d="M 395.5,242.5 C 437.663,243.499 479.997,243.832 522.5,243.5C 522.5,249.5 522.5,255.5 522.5,261.5C 518.993,263.754 515.327,265.754 511.5,267.5C 466.027,268.82 420.694,268.82 375.5,267.5C 384.33,260.809 390.997,252.475 395.5,242.5 Z"/></g>
<g><path style="opacity:1" fill="#989897" d="M 573.5,233.5 C 575.105,234.006 575.439,234.673 574.5,235.5C 557.167,245.167 539.833,254.833 522.5,264.5C 522.5,263.5 522.5,262.5 522.5,261.5C 524.996,260.42 527.33,259.086 529.5,257.5C 543.874,248.98 558.54,240.98 573.5,233.5 Z"/></g>
<g><path style="opacity:1" fill="#dfdedd" d="M 198.5,238.5 C 199.451,239.919 199.784,241.585 199.5,243.5C 205.358,243.822 211.025,243.489 216.5,242.5C 217.872,251.315 220.206,259.981 223.5,268.5C 227.168,276.51 231.835,283.844 237.5,290.5C 230.5,290.5 223.5,290.5 216.5,290.5C 215.272,289.694 214.272,288.694 213.5,287.5C 209.387,280.805 206.054,273.805 203.5,266.5C 201.956,258.777 200.289,251.11 198.5,243.5C 198.5,241.833 198.5,240.167 198.5,238.5 Z"/></g>
<g><path style="opacity:1" fill="#dcb80f" d="M 375.5,267.5 C 420.694,268.82 466.027,268.82 511.5,267.5C 496.002,276.417 480.335,285.084 464.5,293.5C 390.167,293.5 315.833,293.5 241.5,293.5C 240.167,292.5 238.833,291.5 237.5,290.5C 231.835,283.844 227.168,276.51 223.5,268.5C 234.679,268.828 245.679,268.495 256.5,267.5C 257.962,268.458 259.295,269.624 260.5,271C 287.518,281.716 308.518,274.549 323.5,249.5C 323.956,255.447 325.456,261.114 328,266.5C 330.596,270.39 334.096,273.223 338.5,275C 351.995,278.224 364.328,275.724 375.5,267.5 Z"/></g>
<g><path style="opacity:1" fill="#f0f0f0" d="M 31.5,234.5 C 32.4916,234.328 33.1583,234.662 33.5,235.5C 32.9569,235.56 32.6236,235.893 32.5,236.5C 33.9587,238.583 35.2921,240.75 36.5,243C 112.823,286.499 189.489,329.332 266.5,371.5C 261.142,376.186 255.475,380.519 249.5,384.5C 176.833,384.5 104.167,384.5 31.5,384.5C 31.5,334.5 31.5,284.5 31.5,234.5 Z"/></g>
<g><path style="opacity:1" fill="#f0f0f0" d="M 574.5,237.5 C 574.5,286.5 574.5,335.5 574.5,384.5C 505.167,384.5 435.833,384.5 366.5,384.5C 359.662,379.582 352.662,374.915 345.5,370.5C 339.88,372.977 334.547,375.977 329.5,379.5C 331.015,381.082 332.681,382.416 334.5,383.5C 329.684,384.326 324.684,384.826 319.5,385C 316.243,386.262 313.577,388.262 311.5,391C 307.5,391.667 303.5,391.667 299.5,391C 295.925,387.199 291.591,384.366 286.5,382.5C 285.436,379.936 286.436,378.603 289.5,378.5C 294.707,381.021 299.874,383.687 305,386.5C 317.459,379.688 329.959,373.022 342.5,366.5C 343.47,367.629 344.636,368.629 346,369.5C 382.843,349.317 419.677,329.15 456.5,309C 493.147,286.67 530.48,265.337 568.5,245C 570.639,242.522 572.639,240.022 574.5,237.5 Z"/></g>
<g><path style="opacity:1" fill="#9a8115" d="M 84.5,260.5 C 88.8832,263.358 93.5499,265.692 98.5,267.5C 109.643,274.91 121.31,281.577 133.5,287.5C 144.909,294.227 156.576,300.56 168.5,306.5C 190.836,319.67 213.503,332.337 236.5,344.5C 259.275,357.726 282.275,370.726 305.5,383.5C 328.555,370.979 351.222,357.979 373.5,344.5C 389.335,336.084 405.002,327.417 420.5,318.5C 435.527,310.657 450.194,302.324 464.5,293.5C 480.335,285.084 496.002,276.417 511.5,267.5C 515.327,265.754 518.993,263.754 522.5,261.5C 522.5,262.5 522.5,263.5 522.5,264.5C 462.5,298.5 402.5,332.5 342.5,366.5C 329.959,373.022 317.459,379.688 305,386.5C 299.874,383.687 294.707,381.021 289.5,378.5C 283.366,374.596 277.032,370.929 270.5,367.5C 208.465,332.818 146.465,298.151 84.5,263.5C 84.5,262.5 84.5,261.5 84.5,260.5 Z"/></g>
<g><path style="opacity:1" fill="#c8a504" d="M 236.5,344.5 C 282.167,344.5 327.833,344.5 373.5,344.5C 351.222,357.979 328.555,370.979 305.5,383.5C 282.275,370.726 259.275,357.726 236.5,344.5 Z"/></g>
<g><path style="opacity:1" fill="#cfac09" d="M 168.5,306.5 C 169.922,306.709 171.255,307.209 172.5,308C 192.004,308.829 211.338,308.662 230.5,307.5C 259.297,329.171 291.297,335.337 326.5,326C 333.969,323.456 341.302,320.623 348.5,317.5C 372.328,318.498 396.328,318.831 420.5,318.5C 405.002,327.417 389.335,336.084 373.5,344.5C 327.833,344.5 282.167,344.5 236.5,344.5C 213.503,332.337 190.836,319.67 168.5,306.5 Z"/></g>
<g><path style="opacity:1" fill="#d3d2d1" d="M 216.5,290.5 C 223.5,290.5 230.5,290.5 237.5,290.5C 238.833,291.5 240.167,292.5 241.5,293.5C 253.4,305.114 267.733,311.947 284.5,314C 304.693,315.912 324.026,312.746 342.5,304.5C 343.647,304.818 344.481,305.484 345,306.5C 346.278,310.165 347.444,313.832 348.5,317.5C 341.302,320.623 333.969,323.456 326.5,326C 291.297,335.337 259.297,329.171 230.5,307.5C 226.87,303.369 223.037,299.369 219,295.5C 217.906,293.922 217.072,292.255 216.5,290.5 Z"/></g>
<g><path style="opacity:1" fill="#d6b20d" d="M 241.5,293.5 C 315.833,293.5 390.167,293.5 464.5,293.5C 450.194,302.324 435.527,310.657 420.5,318.5C 396.328,318.831 372.328,318.498 348.5,317.5C 347.444,313.832 346.278,310.165 345,306.5C 344.481,305.484 343.647,304.818 342.5,304.5C 324.026,312.746 304.693,315.912 284.5,314C 267.733,311.947 253.4,305.114 241.5,293.5 Z"/></g>
<g><path style="opacity:1" fill="#d7b30d" d="M 133.5,287.5 C 160.306,288.811 186.973,288.811 213.5,287.5C 214.272,288.694 215.272,289.694 216.5,290.5C 217.072,292.255 217.906,293.922 219,295.5C 223.037,299.369 226.87,303.369 230.5,307.5C 211.338,308.662 192.004,308.829 172.5,308C 171.255,307.209 169.922,306.709 168.5,306.5C 156.576,300.56 144.909,294.227 133.5,287.5 Z"/></g>
<g><path style="opacity:1" fill="#ddb80e" d="M 203.5,266.5 C 206.054,273.805 209.387,280.805 213.5,287.5C 186.973,288.811 160.306,288.811 133.5,287.5C 121.31,281.577 109.643,274.91 98.5,267.5C 116.291,268.154 134.124,268.487 152,268.5C 169.513,268.5 186.68,267.833 203.5,266.5 Z"/></g>
<g><path style="opacity:1" fill="#c3c3c3" d="M 366.5,384.5 C 424.287,429.227 482.62,473.227 541.5,516.5C 545.912,520.554 550.579,524.387 555.5,528C 555.167,528.167 554.833,528.333 554.5,528.5C 547.816,524.141 541.149,519.807 534.5,515.5C 468.127,471.141 401.461,427.141 334.5,383.5C 332.681,382.416 331.015,381.082 329.5,379.5C 334.547,375.977 339.88,372.977 345.5,370.5C 352.662,374.915 359.662,379.582 366.5,384.5 Z"/></g>
<g><path style="opacity:1" fill="#c3c3c3" d="M 266.5,371.5 C 267.167,371.5 267.833,371.5 268.5,371.5C 268.953,372.458 269.619,373.292 270.5,374C 274.947,375.39 278.947,377.556 282.5,380.5C 283.711,381.274 283.711,382.107 282.5,383C 215.472,427.177 148.472,471.344 81.5,515.5C 75.6914,518.907 70.0248,522.574 64.5,526.5C 63.707,525.645 64.0403,524.811 65.5,524C 69.0804,521.723 72.4137,519.223 75.5,516.5C 133.808,472.853 191.808,428.853 249.5,384.5C 255.475,380.519 261.142,376.186 266.5,371.5 Z"/></g>
<g><path style="opacity:1" fill="#eaeaea" d="M 31.5,384.5 C 104.167,384.5 176.833,384.5 249.5,384.5C 191.808,428.853 133.808,472.853 75.5,516.5C 60.8333,516.5 46.1667,516.5 31.5,516.5C 31.5,472.5 31.5,428.5 31.5,384.5 Z"/></g>
<g><path style="opacity:1" fill="#e9e9e9" d="M 270.5,367.5 C 277.032,370.929 283.366,374.596 289.5,378.5C 286.436,378.603 285.436,379.936 286.5,382.5C 291.591,384.366 295.925,387.199 299.5,391C 303.5,391.667 307.5,391.667 311.5,391C 313.577,388.262 316.243,386.262 319.5,385C 324.684,384.826 329.684,384.326 334.5,383.5C 401.461,427.141 468.127,471.141 534.5,515.5C 383.5,516.833 232.5,516.833 81.5,515.5C 148.472,471.344 215.472,427.177 282.5,383C 283.711,382.107 283.711,381.274 282.5,380.5C 278.947,377.556 274.947,375.39 270.5,374C 269.619,373.292 268.953,372.458 268.5,371.5C 269.674,370.486 270.34,369.153 270.5,367.5 Z"/></g>
<g><path style="opacity:1" fill="#eaeaea" d="M 366.5,384.5 C 435.833,384.5 505.167,384.5 574.5,384.5C 574.5,428.5 574.5,472.5 574.5,516.5C 563.5,516.5 552.5,516.5 541.5,516.5C 482.62,473.227 424.287,429.227 366.5,384.5 Z"/></g>
<g><path style="opacity:1" fill="#e6e6e6" d="M 81.5,515.5 C 232.5,516.833 383.5,516.833 534.5,515.5C 541.149,519.807 547.816,524.141 554.5,528.5C 554.833,528.333 555.167,528.167 555.5,528C 550.579,524.387 545.912,520.554 541.5,516.5C 552.5,516.5 563.5,516.5 574.5,516.5C 574.5,526.5 574.5,536.5 574.5,546.5C 393.5,546.5 212.5,546.5 31.5,546.5C 31.5,536.5 31.5,526.5 31.5,516.5C 46.1667,516.5 60.8333,516.5 75.5,516.5C 72.4137,519.223 69.0804,521.723 65.5,524C 64.0403,524.811 63.707,525.645 64.5,526.5C 70.0248,522.574 75.6914,518.907 81.5,515.5 Z"/></g>
</svg>
