<?xml version="1.0" encoding="UTF-8"?>
<!DOCTYPE svg PUBLIC "-//W3C//DTD SVG 1.1//EN" "http://www.w3.org/Graphics/SVG/1.1/DTD/svg11.dtd">
<svg xmlns="http://www.w3.org/2000/svg" version="1.1" width="1024px" height="1024px" style="shape-rendering:geometricPrecision; text-rendering:geometricPrecision; image-rendering:optimizeQuality; fill-rule:evenodd; clip-rule:evenodd" xmlns:xlink="http://www.w3.org/1999/xlink">
<g><path style="opacity:0.987" fill="#000000" d="M 498.5,198.5 C 604.969,197.164 692.469,236.831 761,317.5C 827.021,403.287 847.021,498.954 821,604.5C 792.519,699.99 733.352,769.157 643.5,812C 633.043,816.562 622.376,820.562 611.5,824C 601.305,825.989 594.472,822.156 591,812.5C 590.962,775.134 590.295,737.8 589,700.5C 586.494,685.156 579.994,671.823 569.5,660.5C 674.72,649.436 722.886,591.103 714,485.5C 711.771,467.145 705.771,450.145 696,434.5C 691.128,428.582 686.628,422.415 682.5,416C 691.167,388.178 690.167,360.678 679.5,333.5C 677.187,332.727 674.854,332.06 672.5,331.5C 654.888,333.537 638.221,338.703 622.5,347C 611.737,352.795 601.237,358.962 591,365.5C 538.001,350.833 485.001,350.833 432,365.5C 416.327,355.245 399.827,346.412 382.5,339C 369.864,333.634 356.864,331.467 343.5,332.5C 334.824,355.575 332.657,379.242 337,403.5C 338.107,408.153 339.607,412.653 341.5,417C 323.301,436.573 312.467,459.74 309,486.5C 301.185,591.95 349.351,650.116 453.5,661C 442.119,673.265 435.119,687.765 432.5,704.5C 411.796,714.019 390.796,714.852 369.5,707C 360.051,701.693 351.885,694.86 345,686.5C 337.257,671.761 326.424,659.927 312.5,651C 301.656,644.856 290.323,643.523 278.5,647C 276.022,648.938 275.855,651.105 278,653.5C 283.593,659.096 289.76,663.93 296.5,668C 304.654,675.495 311.487,683.995 317,693.5C 321.488,703.81 326.488,713.81 332,723.5C 346.28,740.224 364.447,749.39 386.5,751C 402.004,751.999 417.338,750.833 432.5,747.5C 432.667,769.503 432.5,791.503 432,813.5C 429.135,820.691 423.801,824.358 416,824.5C 387.911,816.871 361.744,805.038 337.5,789C 251.308,730.848 202.808,649.681 192,545.5C 186.01,432.015 226.51,339.182 313.5,267C 368.023,225.08 429.689,202.247 498.5,198.5 Z"/></g>
<g><path style="opacity:0.742" fill="#000000" d="M 306.5,652.5 C 311.861,652.667 313.861,655.167 312.5,660C 309.099,661.744 306.266,660.91 304,657.5C 303.294,655.045 304.127,653.378 306.5,652.5 Z"/></g>
<g><path style="opacity:0.759" fill="#000000" d="M 319.5,663.5 C 324.83,664.317 327.33,667.317 327,672.5C 321.421,675.821 317.921,674.154 316.5,667.5C 316.787,665.557 317.787,664.223 319.5,663.5 Z"/></g>
<g><path style="opacity:0.802" fill="#000000" d="M 330.5,680.5 C 338.292,680.289 341.292,683.956 339.5,691.5C 331.134,692.456 328.134,688.79 330.5,680.5 Z"/></g>
<g><path style="opacity:0.804" fill="#000000" d="M 346.5,698.5 C 352.419,698.087 356.085,700.754 357.5,706.5C 356.783,710.525 354.45,712.025 350.5,711C 344.377,708.198 343.044,704.031 346.5,698.5 Z"/></g>
<g><path style="opacity:0.795" fill="#000000" d="M 368.5,712.5 C 373.635,711.426 377.468,713.093 380,717.5C 380.168,721.171 378.335,723.171 374.5,723.5C 369.637,723.737 366.637,721.57 365.5,717C 365.557,714.791 366.557,713.291 368.5,712.5 Z"/></g>
<g><path style="opacity:0.79" fill="#000000" d="M 420.5,713.5 C 423.649,713.211 426.649,713.711 429.5,715C 431.48,719.366 430.147,722.366 425.5,724C 421.82,725.027 418.653,724.194 416,721.5C 415.533,717.785 417.033,715.119 420.5,713.5 Z"/></g>
<g><path style="opacity:0.781" fill="#000000" d="M 395.5,716.5 C 398.649,716.211 401.649,716.711 404.5,718C 407.6,723.617 405.767,726.784 399,727.5C 393.349,727.525 391.016,724.859 392,719.5C 393.145,718.364 394.312,717.364 395.5,716.5 Z"/></g>
</svg>
