<?xml version="1.0" encoding="UTF-8"?>
<!DOCTYPE svg PUBLIC "-//W3C//DTD SVG 1.1//EN" "http://www.w3.org/Graphics/SVG/1.1/DTD/svg11.dtd">
<svg xmlns="http://www.w3.org/2000/svg" version="1.1" width="800px" height="707px" style="shape-rendering:geometricPrecision; text-rendering:geometricPrecision; image-rendering:optimizeQuality; fill-rule:evenodd; clip-rule:evenodd" xmlns:xlink="http://www.w3.org/1999/xlink">
<g><path style="opacity:1" fill="#007bb6" d="M 39.5,-0.5 C 248.833,-0.5 458.167,-0.5 667.5,-0.5C 689.617,5.65638 703.117,19.9897 708,42.5C 708.667,249.5 708.667,456.5 708,663.5C 703.117,686.01 689.617,700.344 667.5,706.5C 458.167,706.5 248.833,706.5 39.5,706.5C 19.5685,700.235 6.23517,687.235 -0.5,667.5C -0.5,457.833 -0.5,248.167 -0.5,38.5C 5.90374,18.43 19.2371,5.42999 39.5,-0.5 Z"/></g>
<g><path style="opacity:1" fill="#fdfefe" d="M 145.5,217.5 C 143.485,216.076 141.152,215.41 138.5,215.5C 118.084,208.25 104.584,194.25 98,173.5C 91.7128,143.332 101.546,120.165 127.5,104C 156.375,90.9352 181.875,95.7685 204,118.5C 218.488,137.742 221.488,158.742 213,181.5C 199.074,209.382 176.574,221.382 145.5,217.5 Z"/></g>
<g><path style="opacity:1" fill="#afd4e7" d="M 138.5,215.5 C 141.152,215.41 143.485,216.076 145.5,217.5C 142.848,217.59 140.515,216.924 138.5,215.5 Z"/></g>
<g><path style="opacity:1" fill="#fefefe" d="M 495.5,256.5 C 498.946,257.687 502.613,258.354 506.5,258.5C 551.806,264.637 580.973,289.637 594,333.5C 598.796,351.87 601.63,370.536 602.5,389.5C 602.5,460.167 602.5,530.833 602.5,601.5C 567.833,601.5 533.167,601.5 498.5,601.5C 498.832,539.331 498.499,477.331 497.5,415.5C 497.9,398.769 494.067,383.102 486,368.5C 474.397,354.123 459.23,347.456 440.5,348.5C 411.781,349.057 393.281,363.057 385,390.5C 383.152,397.741 381.818,405.074 381,412.5C 380.5,475.499 380.333,538.499 380.5,601.5C 345.329,601.832 310.329,601.498 275.5,600.5C 276.499,489.001 276.833,377.335 276.5,265.5C 309.5,265.5 342.5,265.5 375.5,265.5C 375.171,280.676 375.504,295.676 376.5,310.5C 396.118,279.839 424.118,262.005 460.5,257C 472.162,256.5 483.829,256.333 495.5,256.5 Z"/></g>
<g><path style="opacity:1" fill="#64a9cf" d="M 495.5,256.5 C 499.489,256.116 503.155,256.783 506.5,258.5C 502.613,258.354 498.946,257.687 495.5,256.5 Z"/></g>
<g><path style="opacity:1" fill="#e6f2f8" d="M 376.5,310.5 C 375.504,295.676 375.171,280.676 375.5,265.5C 342.5,265.5 309.5,265.5 276.5,265.5C 276.833,377.335 276.499,489.001 275.5,600.5C 275.5,488.5 275.5,376.5 275.5,264.5C 309.167,264.5 342.833,264.5 376.5,264.5C 376.5,279.833 376.5,295.167 376.5,310.5 Z"/></g>
<g><path style="opacity:1" fill="#89c1dd" d="M 602.5,389.5 C 603.499,460.331 603.833,531.331 603.5,602.5C 568.167,602.5 532.833,602.5 497.5,602.5C 497.5,540.167 497.5,477.833 497.5,415.5C 498.499,477.331 498.832,539.331 498.5,601.5C 533.167,601.5 567.833,601.5 602.5,601.5C 602.5,530.833 602.5,460.167 602.5,389.5 Z"/></g>
<g><path style="opacity:0.801" fill="#fefefe" d="M 729.5,564.5 C 738.5,564.5 747.5,564.5 756.5,564.5C 756.5,566.833 756.5,569.167 756.5,571.5C 753.167,571.5 749.833,571.5 746.5,571.5C 746.5,581.833 746.5,592.167 746.5,602.5C 744.167,602.5 741.833,602.5 739.5,602.5C 739.5,592.167 739.5,581.833 739.5,571.5C 736.167,571.5 732.833,571.5 729.5,571.5C 729.5,569.167 729.5,566.833 729.5,564.5 Z"/></g>
<g><path style="opacity:0.825" fill="#fefefe" d="M 799.5,564.5 C 799.5,577.167 799.5,589.833 799.5,602.5C 797.5,602.5 795.5,602.5 793.5,602.5C 793.666,594.493 793.5,586.493 793,578.5C 790,586.167 787,593.833 784,601.5C 782,602.833 780,602.833 778,601.5C 774.605,593.98 771.605,586.313 769,578.5C 768.5,586.493 768.334,594.493 768.5,602.5C 766.167,602.5 763.833,602.5 761.5,602.5C 761.5,589.833 761.5,577.167 761.5,564.5C 764.833,564.5 768.167,564.5 771.5,564.5C 774.165,572.993 777.332,581.326 781,589.5C 784.069,581.46 787.235,573.46 790.5,565.5C 793.428,564.516 796.428,564.183 799.5,564.5 Z"/></g>
<g><path style="opacity:1" fill="#5fabd0" d="M 104.5,264.5 C 104.5,376.5 104.5,488.5 104.5,600.5C 139.329,601.498 174.329,601.832 209.5,601.5C 209.5,489.5 209.5,377.5 209.5,265.5C 209.5,265.167 209.5,264.833 209.5,264.5C 210.5,376.999 210.833,489.665 210.5,602.5C 174.833,602.5 139.167,602.5 103.5,602.5C 103.167,489.665 103.5,376.999 104.5,264.5 Z"/></g>
<g><path style="opacity:1" fill="#f0f7fb" d="M 104.5,264.5 C 139.5,264.5 174.5,264.5 209.5,264.5C 209.5,264.833 209.5,265.167 209.5,265.5C 174.833,265.5 140.167,265.5 105.5,265.5C 105.833,377.335 105.499,489.001 104.5,600.5C 104.5,488.5 104.5,376.5 104.5,264.5 Z"/></g>
<g><path style="opacity:1" fill="#fefefe" d="M 209.5,265.5 C 209.5,377.5 209.5,489.5 209.5,601.5C 174.329,601.832 139.329,601.498 104.5,600.5C 105.499,489.001 105.833,377.335 105.5,265.5C 140.167,265.5 174.833,265.5 209.5,265.5 Z"/></g>
</svg>
