<?xml version="1.0" encoding="UTF-8"?>
<!DOCTYPE svg PUBLIC "-//W3C//DTD SVG 1.1//EN" "http://www.w3.org/Graphics/SVG/1.1/DTD/svg11.dtd">
<svg xmlns="http://www.w3.org/2000/svg" version="1.1" width="1024px" height="1024px" style="shape-rendering:geometricPrecision; text-rendering:geometricPrecision; image-rendering:optimizeQuality; fill-rule:evenodd; clip-rule:evenodd" xmlns:xlink="http://www.w3.org/1999/xlink">
<g><path style="opacity:0.996" fill="#018f99" d="M 475.5,-0.5 C 499.5,-0.5 523.5,-0.5 547.5,-0.5C 700.256,13.1182 824.09,79.7849 919,199.5C 981.242,282.028 1016.08,375.028 1023.5,478.5C 1023.5,500.5 1023.5,522.5 1023.5,544.5C 1009.95,702.113 940.619,828.947 815.5,925C 734.742,983.303 644.409,1016.14 544.5,1023.5C 522.5,1023.5 500.5,1023.5 478.5,1023.5C 316.841,1009.6 188.008,937.602 92,807.5C 37.825,729.415 6.99171,642.748 -0.5,547.5C -0.5,523.5 -0.5,499.5 -0.5,475.5C 15.9497,303.707 95.9497,170.541 239.5,76C 311.847,31.6079 390.514,6.10794 475.5,-0.5 Z"/></g>
<g><path style="opacity:1" fill="#fefefe" d="M 343.5,237.5 C 354.485,236.742 363.318,240.742 370,249.5C 393.113,291.391 415.446,333.724 437,376.5C 438.67,386.129 437.004,395.129 432,403.5C 420.333,415.833 408.667,428.167 397,440.5C 396.362,448.934 398.028,456.934 402,464.5C 414.452,489.753 430.119,512.753 449,533.5C 468.259,553.762 488.426,572.929 509.5,591C 525.16,602.837 541.827,613.17 559.5,622C 567.185,626.008 575.185,627.008 583.5,625C 596.529,611.637 609.862,598.637 623.5,586C 626.382,584.392 629.382,583.059 632.5,582C 642.663,580.318 652.33,581.651 661.5,586C 698.167,607.667 734.833,629.333 771.5,651C 786.538,661.118 789.371,673.952 780,689.5C 750.776,719.392 720.943,748.558 690.5,777C 680.244,782.751 669.244,785.251 657.5,784.5C 637.543,783.745 617.876,780.912 598.5,776C 535.832,754.182 479.498,721.849 429.5,679C 389.456,643.629 352.956,605.129 320,563.5C 299.237,535.664 281.237,505.997 266,474.5C 251.596,443.622 242.263,411.289 238,377.5C 237.017,365.328 238.017,353.328 241,341.5C 243.079,337.007 245.412,332.674 248,328.5C 276.5,300 305,271.5 333.5,243C 336.767,240.87 340.1,239.037 343.5,237.5 Z"/></g>
</svg>
